<svg xmlns="http://www.w3.org/2000/svg" width="295.249" height="83.271" viewBox="0 0 295.249 83.271">
  <g id="Gruppe_10" data-name="Gruppe 10" transform="translate(-36 -668.976)">
    <rect id="Rechteck_1" data-name="Rechteck 1" width="1.954" height="14.089" transform="translate(159.566 733.849)" fill="#84cff0"/>
    <g id="Gruppe_1" data-name="Gruppe 1" transform="translate(164.557 733.267)">
      <path id="Pfad_1" data-name="Pfad 1" d="M118.922,713.589a4.4,4.4,0,0,1,2.941-1.63c1.427,0,2.032,1.209,2.032,2.818v7.97h-1.873V715.14c0-.826-.22-1.51-.945-1.51-.925,0-1.811,1.128-2.154,1.61v7.507h-1.87V712.18h1.87Z" transform="translate(-117.052 -708.075)" fill="#84cff0"/>
      <path id="Pfad_2" data-name="Pfad 2" d="M128.114,721.122v-4.449c-.485-.9-1.169-1.569-1.873-1.569-.987,0-1.469,1.408-1.469,3.8,0,2.355.482,3.784,1.469,3.784.7,0,1.388-.644,1.873-1.57m0,3.06v-1.288a3.321,3.321,0,0,1-2.457,1.508c-1.631,0-2.8-1.669-2.8-5.494,0-3.845,1.167-5.515,2.8-5.515a3.288,3.288,0,0,1,2.457,1.53V709.51h1.87v14.671Z" transform="translate(-113.648 -709.51)" fill="#84cff0"/>
      <path id="Pfad_3" data-name="Pfad 3" d="M134.046,721.255a4.367,4.367,0,0,1-2.941,1.63c-1.427,0-2.032-1.207-2.032-2.817V712.1h1.87V719.7c0,.826.225,1.51.947,1.51.926,0,1.813-1.128,2.155-1.591V712.1h1.87v10.565h-1.87Z" transform="translate(-110.006 -707.993)" fill="#84cff0"/>
      <path id="Pfad_4" data-name="Pfad 4" d="M141.326,720.09a2.747,2.747,0,0,1-2.92,2.879,6.651,6.651,0,0,1-3.6-1.309l.844-1.45a5.5,5.5,0,0,0,2.6,1.088,1.114,1.114,0,0,0,1.183-1.188c0-1.007-.882-1.469-1.829-1.933-1.248-.6-2.657-1.448-2.657-3.32a2.724,2.724,0,0,1,2.855-2.9,6.266,6.266,0,0,1,3.223,1.088l-.885,1.389a4.837,4.837,0,0,0-2.154-.806,1.067,1.067,0,0,0-1.148,1.147c0,1.047.947,1.429,1.713,1.791,1.729.826,2.776,1.913,2.776,3.523" transform="translate(-106.646 -708.075)" fill="#84cff0"/>
      <path id="Pfad_5" data-name="Pfad 5" d="M139.955,713.229h.987v-2.495l1.892-.565v3.06h1.972v1.57h-1.972v6.319c0,.906.282,1.086.584,1.086a2.855,2.855,0,0,0,1.186-.463l.666,1.491a4.962,4.962,0,0,1-2.335.784c-1.269,0-1.994-.763-1.994-2.8V714.8h-.987Z" transform="translate(-103.628 -709.124)" fill="#84cff0"/>
      <path id="Pfad_6" data-name="Pfad 6" d="M146.353,714.382c.143-.423.847-2.557,2.719-2.355V714c-2.457,0-2.719,3.34-2.719,3.34v5.374h-1.87V712.148h1.87Z" transform="translate(-100.975 -708.043)" fill="#84cff0"/>
    </g>
    <path id="Pfad_7" data-name="Pfad 7" d="M148.655,713.593h1.87V724.16h-1.87Zm-.062-4.046h1.973v2.135h-1.973Z" transform="translate(65.991 23.779)" fill="#84cff0"/>
    <g id="Gruppe_2" data-name="Gruppe 2" transform="translate(219.011 737.15)">
      <path id="Pfad_8" data-name="Pfad 8" d="M153.317,716.729h3.259c0-2.214-.522-3.22-1.531-3.22-1.085,0-1.631,1.207-1.729,3.22m-.022,1.228c.081,2.072.644,3.4,1.732,3.4a5.376,5.376,0,0,0,2.5-1.267l.844,1.228a6.308,6.308,0,0,1-3.562,1.65c-1.911,0-3.421-1.791-3.421-5.494,0-3.542,1.388-5.515,3.581-5.515,2.216,0,3.364,1.952,3.364,4.589a7.6,7.6,0,0,1-.122,1.41Z" transform="translate(-151.384 -711.958)" fill="#84cff0"/>
    </g>
    <path id="Pfad_9" data-name="Pfad 9" d="M159.424,722.665,156.545,712.1h2.014l1.789,8.232,1.832-8.232h1.994l-2.9,10.567Z" transform="translate(70.652 25.274)" fill="#84cff0"/>
    <g id="Gruppe_3" data-name="Gruppe 3" transform="translate(236.068 737.15)">
      <path id="Pfad_10" data-name="Pfad 10" d="M164.071,716.729h3.261c0-2.214-.523-3.22-1.532-3.22-1.085,0-1.629,1.207-1.729,3.22m-.022,1.228c.081,2.072.644,3.4,1.734,3.4a5.379,5.379,0,0,0,2.495-1.267l.844,1.228a6.308,6.308,0,0,1-3.562,1.65c-1.911,0-3.421-1.791-3.421-5.494,0-3.542,1.389-5.515,3.581-5.515,2.216,0,3.364,1.952,3.364,4.589a7.6,7.6,0,0,1-.122,1.41Z" transform="translate(-162.138 -711.958)" fill="#84cff0"/>
      <path id="Pfad_11" data-name="Pfad 11" d="M169.908,714.382c.143-.423.845-2.557,2.719-2.355V714c-2.457,0-2.719,3.34-2.719,3.34v5.374h-1.87V712.148h1.87Z" transform="translate(-158.68 -711.926)" fill="#84cff0"/>
    </g>
    <path id="Pfad_12" data-name="Pfad 12" d="M177.294,715.116l-1.508,7.548h-1.753L171.777,712.1h1.994l1.288,7.75,1.529-7.75h1.431l1.527,7.769,1.27-7.769h1.991l-2.233,10.567h-1.753Z" transform="translate(79.58 25.274)" fill="#84cff0"/>
    <g id="Gruppe_4" data-name="Gruppe 4" transform="translate(117.339 687.416)">
      <path id="Pfad_13" data-name="Pfad 13" d="M181.777,716.729h3.259c0-2.214-.522-3.22-1.531-3.22-1.085,0-1.631,1.207-1.729,3.22m-.022,1.228c.081,2.072.644,3.4,1.732,3.4a5.376,5.376,0,0,0,2.5-1.267l.844,1.228a6.308,6.308,0,0,1-3.561,1.65c-1.913,0-3.423-1.791-3.423-5.494,0-3.542,1.388-5.515,3.581-5.515,2.216,0,3.364,1.952,3.364,4.589a7.6,7.6,0,0,1-.122,1.41Z" transform="translate(-33.031 -662.224)" fill="#84cff0"/>
      <path id="Pfad_14" data-name="Pfad 14" d="M187.612,714.382c.143-.423.845-2.557,2.719-2.355V714c-2.457,0-2.719,3.34-2.719,3.34v5.374h-1.87V712.148h1.87Z" transform="translate(-29.574 -662.192)" fill="#84cff0"/>
      <path id="Pfad_15" data-name="Pfad 15" d="M189.5,713.229h.987v-2.495l1.892-.565v3.06h1.972v1.57h-1.972v6.319c0,.906.282,1.086.584,1.086a2.854,2.854,0,0,0,1.186-.463l.665,1.491a4.948,4.948,0,0,1-2.333.784c-1.269,0-1.994-.763-1.994-2.8V714.8H189.5Z" transform="translate(-27.373 -663.273)" fill="#84cff0"/>
      <path id="Pfad_16" data-name="Pfad 16" d="M198.971,721.255a4.367,4.367,0,0,1-2.941,1.63c-1.427,0-2.032-1.207-2.032-2.817V712.1h1.87V719.7c0,.826.224,1.51.947,1.51.926,0,1.813-1.128,2.156-1.591V712.1h1.87v10.565h-1.87Z" transform="translate(-24.735 -662.142)" fill="#84cff0"/>
      <path id="Pfad_17" data-name="Pfad 17" d="M201.931,713.589a4.4,4.4,0,0,1,2.941-1.63c1.427,0,2.032,1.209,2.032,2.818v7.97h-1.87V715.14c0-.826-.224-1.51-.95-1.51-.923,0-1.81,1.128-2.152,1.61v7.507h-1.87V712.18h1.87Z" transform="translate(-21.182 -662.224)" fill="#84cff0"/>
      <path id="Pfad_18" data-name="Pfad 18" d="M211.126,719.687v-4.449c-.485-.9-1.169-1.569-1.873-1.569-.988,0-1.47,1.408-1.47,3.8,0,2.355.482,3.784,1.47,3.784.7,0,1.388-.644,1.873-1.57M213,712.18v11.13c0,2.738-1.069,3.745-3.06,3.745a11.333,11.333,0,0,1-3.764-.785l.523-1.611a8.476,8.476,0,0,0,2.858.725c1.087,0,1.572-.623,1.572-2.033v-1.891a3.327,3.327,0,0,1-2.46,1.508c-1.631,0-2.8-1.669-2.8-5.494,0-3.845,1.166-5.515,2.8-5.515a3.294,3.294,0,0,1,2.46,1.531V712.18Z" transform="translate(-17.777 -662.224)" fill="#84cff0"/>
      <path id="Pfad_19" data-name="Pfad 19" d="M213.813,716.729h3.261c0-2.214-.522-3.22-1.531-3.22-1.085,0-1.631,1.207-1.73,3.22m-.021,1.228c.081,2.072.644,3.4,1.732,3.4a5.376,5.376,0,0,0,2.5-1.267l.842,1.228a6.3,6.3,0,0,1-3.559,1.65c-1.913,0-3.423-1.791-3.423-5.494,0-3.542,1.388-5.515,3.581-5.515,2.216,0,3.364,1.952,3.364,4.589a7.6,7.6,0,0,1-.122,1.41Z" transform="translate(-14.254 -662.224)" fill="#84cff0"/>
      <path id="Pfad_20" data-name="Pfad 20" d="M219.651,713.589a4.4,4.4,0,0,1,2.941-1.63c1.428,0,2.032,1.209,2.032,2.818v7.97H222.75V715.14c0-.826-.22-1.51-.945-1.51-.925,0-1.811,1.128-2.154,1.61v7.507h-1.87V712.18h1.87Z" transform="translate(-10.796 -662.224)" fill="#84cff0"/>
      <path id="Pfad_21" data-name="Pfad 21" d="M175.553,716.448c-9.2,0-15.033-5.529-15.033-17.818,0-12.034,6.043-18.028,14.979-18.028,9.242,0,14.976,5.58,14.976,17.925,0,12.086-6.091,17.921-14.922,17.921m-.054-29.492c-4.7,0-6.974,2.739-6.974,11.571,0,8.678,2.376,11.569,7.028,11.569,4.75,0,6.919-2.891,6.919-11.569,0-8.936-2.53-11.571-6.973-11.571" transform="translate(-44.357 -680.602)" fill="#053a58"/>
      <path id="Pfad_22" data-name="Pfad 22" d="M110.163,706.545c-.929,0-2.53.051-3.409.156l-.346,2.714h-7.97v-8.292h9.97a52.914,52.914,0,0,0,.412-6.3H98.439V687.26h7.656l.351,2.4c.879.106,2.477.209,3.405.209a30.342,30.342,0,0,0,3.153-.209v-8.727H87.437a27.613,27.613,0,0,0-.155,2.89,25.863,25.863,0,0,0,.155,2.841l3.359.519v22.313l-3.359.516a25.884,25.884,0,0,0-.155,2.841,27.648,27.648,0,0,0,.155,2.893h25.876V706.7a30.96,30.96,0,0,0-3.15-.156" transform="translate(-87.282 -680.411)" fill="#053a58"/>
      <path id="Pfad_23" data-name="Pfad 23" d="M168.081,706.389a31.572,31.572,0,0,0-3.2-.155c-.877,0-2.478.049-3.356.155l-.347,3.023H154.6V687.176l3.461-.519a25.5,25.5,0,0,0,.154-2.841,27.155,27.155,0,0,0-.154-2.89H143.6a27.157,27.157,0,0,0-.155,2.89,25.492,25.492,0,0,0,.155,2.841l3.359.519V709.49l-3.359.516a25.45,25.45,0,0,0-.155,2.841,27.24,27.24,0,0,0,.155,2.893h24.482Z" transform="translate(-54.365 -680.412)" fill="#053a58"/>
      <path id="Pfad_24" data-name="Pfad 24" d="M123.618,680.929v8.933a28.978,28.978,0,0,0,3.1.208c.879,0,2.376-.1,3.255-.208l.282-2.6h3.759v22.228l-3.356.519a24.736,24.736,0,0,0-.154,2.841,26.445,26.445,0,0,0,.154,2.893h14.356a26.451,26.451,0,0,0,.157-2.893,24.726,24.726,0,0,0-.157-2.841l-3.356-.519V687.261h3.762l.284,2.6c.877.1,2.376.208,3.253.208a28.923,28.923,0,0,0,3.1-.208v-8.933Z" transform="translate(-65.985 -680.41)" fill="#053a58"/>
    </g>
    <rect id="Rechteck_2" data-name="Rechteck 2" width="6.325" height="6.332" transform="translate(85.772 687.18)" fill="#cedc00"/>
    <g id="Gruppe_5" data-name="Gruppe 5" transform="translate(83.053 687.935)">
      <path id="Pfad_25" data-name="Pfad 25" d="M94.225,709.645a2.843,2.843,0,0,1-3-1.859l-2.814-5.372L87.2,700.092a9.125,9.125,0,0,0,3.726-2.993l.014-.018a9.833,9.833,0,0,0,1.837-5.824v-.035a10.285,10.285,0,0,0-10.294-10.292l-.558,0h-.1v6.332H75.5v6.325H69.174v15.906l-3.358.516a25.894,25.894,0,0,0-.151,2.841,27.661,27.661,0,0,0,.151,2.893H79.145a27.666,27.666,0,0,0,.154-2.893,25.884,25.884,0,0,0-.154-2.841l-2.53-.516v-7.077h3.562l4.647,9.4c1.653,3.356,3.41,4.441,6.248,4.441s4.652-1.291,4.652-3.975v-2.636Z" transform="translate(-65.666 -680.929)" fill="#053a58"/>
    </g>
    <rect id="Rechteck_3" data-name="Rechteck 3" width="6.308" height="6.319" transform="translate(64.453 706.901)" fill="#cedc00"/>
    <rect id="Rechteck_4" data-name="Rechteck 4" width="12.606" height="12.635" transform="translate(58.142 684.793)" fill="#cedc00"/>
    <rect id="Rechteck_5" data-name="Rechteck 5" width="9.48" height="9.502" transform="translate(36 668.976)" fill="#cedc00"/>
    <rect id="Rechteck_6" data-name="Rechteck 6" width="9.463" height="9.486" transform="translate(70.75 697.429)" fill="#cedc00"/>
    <rect id="Rechteck_7" data-name="Rechteck 7" width="6.308" height="6.321" transform="translate(39.16 697.42)" fill="#cedc00"/>
    <rect id="Rechteck_8" data-name="Rechteck 8" width="6.308" height="6.319" transform="translate(51.801 678.459)" fill="#cedc00"/>
    <rect id="Rechteck_9" data-name="Rechteck 9" width="9.463" height="9.486" transform="translate(73.922 672.132)" fill="#cedc00"/>
    <g id="Gruppe_6" data-name="Gruppe 6" transform="translate(148.571 687.414)">
      <path id="Pfad_26" data-name="Pfad 26" d="M117.146,716.449a27.513,27.513,0,0,1-10.173-1.808v-7.9c.877-.1,2.274-.206,3.152-.206.928,0,2.427.1,3.305.206l.411,3.047a15.67,15.67,0,0,0,3.926.466c2.995,0,4.34-1.188,4.34-3.462,0-5.629-15.085-5.061-15.085-15.545,0-6.766,5.374-10.643,13.433-10.643a36.089,36.089,0,0,1,8.47.985v8.367c-.876.1-2.274.206-3.2.206-.876,0-2.479-.1-3.356-.206l-.412-2.944a18.968,18.968,0,0,0-2.741-.208c-3.147,0-4.132,1.239-4.132,3.462,0,4.752,15.032,4.8,15.032,15.285,0,6.976-5.266,10.9-12.965,10.9" transform="translate(-106.973 -680.601)" fill="#053a58"/>
      <path id="Pfad_27" data-name="Pfad 27" d="M192.233,716.449a27.513,27.513,0,0,1-10.173-1.808v-7.9c.877-.1,2.274-.206,3.152-.206.928,0,2.427.1,3.307.206l.409,3.047a15.674,15.674,0,0,0,3.927.466c2.993,0,4.338-1.188,4.338-3.462,0-5.629-15.085-5.061-15.085-15.545,0-6.766,5.374-10.643,13.433-10.643a36.089,36.089,0,0,1,8.47.985v8.367c-.876.1-2.274.206-3.2.206-.876,0-2.478-.1-3.356-.206l-.412-2.944a18.963,18.963,0,0,0-2.739-.208c-3.148,0-4.133,1.239-4.133,3.462,0,4.752,15.032,4.8,15.032,15.285,0,6.976-5.266,10.9-12.965,10.9" transform="translate(-62.964 -680.601)" fill="#053a58"/>
    </g>
    <rect id="Rechteck_10" data-name="Rechteck 10" width="3.575" height="4.362" transform="translate(293.001 719.224)" fill="#053a58"/>
    <g id="Gruppe_7" data-name="Gruppe 7" transform="translate(298.017 711.533)">
      <path id="Pfad_28" data-name="Pfad 28" d="M207.715,700.193c-.855-.517-1.326-.855-1.776-.855-.809,0-1.012,1.125-1.012,2.609s.2,2.63.99,2.63a4.38,4.38,0,0,0,1.8-.831l1.461,2.99a8.867,8.867,0,0,1-4,1.372c-2.136,0-3.98-1.865-3.98-6.161,0-4.317,1.843-6.14,3.98-6.14a9.14,9.14,0,0,1,4,1.372Z" transform="translate(-201.195 -695.807)" fill="#053a58"/>
      <path id="Pfad_29" data-name="Pfad 29" d="M211.306,698.955c-.855,0-1.056,1.08-1.056,2.991s.2,3.012,1.056,3.012,1.034-1.079,1.034-2.99-.179-3.014-1.034-3.014m0,9.152c-3.237,0-4.768-2.249-4.768-6.161s1.507-6.14,4.768-6.14,4.766,2.249,4.766,6.162-1.483,6.138-4.766,6.138" transform="translate(-198.063 -695.807)" fill="#053a58"/>
      <path id="Pfad_30" data-name="Pfad 30" d="M217.116,697.426a3.365,3.365,0,0,1,2.585-1.619,2.43,2.43,0,0,1,2.271,1.889,3.466,3.466,0,0,1,2.811-1.889c1.529,0,2.474,1.259,2.474,3.486v8.567H223.57v-7.375c0-.855-.046-1.485-.473-1.485-.382,0-.7.45-.9.945v7.915h-3.71v-7.375c0-.855-.022-1.485-.473-1.485-.382,0-.7.473-.9,1.012v7.848h-3.688V696.054h3.688Z" transform="translate(-194.025 -695.807)" fill="#053a58"/>
    </g>
  </g>
</svg>
